<?xml version="1.0" standalone="no"?>
<!DOCTYPE svg PUBLIC "-//W3C//DTD SVG 1.1//EN" "http://www.w3.org/Graphics/SVG/1.1/DTD/svg11.dtd" >
<svg xmlns="http://www.w3.org/2000/svg">
<metadata></metadata>
<defs>
<font id="texta_narrowheavy" horiz-adv-x="1124" >
<font-face units-per-em="2048" ascent="1536" descent="-512" />
<missing-glyph horiz-adv-x="380" />
<glyph horiz-adv-x="0" />
<glyph horiz-adv-x="682" />
<glyph horiz-adv-x="0" />
<glyph horiz-adv-x="0" />
<glyph unicode="&#xd;" horiz-adv-x="206" />
<glyph unicode=" "  horiz-adv-x="380" />
<glyph unicode="&#x09;" horiz-adv-x="380" />
<glyph unicode="&#xa0;" horiz-adv-x="380" />
<glyph unicode="!" horiz-adv-x="448" d="M78 133q0 63 42 107.5t103 44.5q62 0 106 -44.5t44 -107.5t-44 -106t-106 -43q-61 0 -103 43t-42 106zM82 1229h283l-60 -821h-162z" />
<glyph unicode="&#x22;" horiz-adv-x="651" d="M78 973l26 428h211l-92 -428h-145zM377 973l24 428h211l-90 -428h-145z" />
<glyph unicode="#" horiz-adv-x="1241" d="M55 305l31 144h219l60 296h-220l31 144h217l64 305h153l-63 -305h258l63 305h154l-64 -305h228l-33 -144h-223l-60 -296h226l-31 -144h-223l-62 -305h-153l61 305h-260l-61 -305h-152l61 305h-221zM459 449h258l59 296h-258z" />
<glyph unicode="$" horiz-adv-x="1003" d="M57 131l136 188q13 -10 37 -26t91.5 -47t129.5 -41v311l-5 2q-192 61 -282 146t-90 227q0 155 95.5 252t281.5 110v213h112v-213q71 -4 134 -19t101.5 -32.5t67 -34t40.5 -27.5l12 -12l-134 -202q-10 9 -28.5 22.5t-76.5 40t-116 35.5v-281q198 -62 290.5 -150.5 t92.5 -232.5q0 -160 -98.5 -266.5t-284.5 -118.5v-194h-112v194q-74 6 -141.5 24t-111.5 40t-77.5 43t-48.5 35zM356 905q0 -40 21.5 -67t73.5 -52v236q-95 -20 -95 -117zM563 207q96 23 96 131q0 45 -20.5 75t-75.5 58v-264z" />
<glyph unicode="%" horiz-adv-x="1269" d="M63 952q0 127 71.5 215t191.5 88q119 0 189.5 -88t70.5 -215q0 -126 -71 -215.5t-189 -89.5q-120 0 -191.5 89.5t-71.5 215.5zM80 0l897 1229h203l-897 -1229h-203zM231 952q0 -159 95 -159q44 0 68 41.5t24 117.5q0 77 -24 118.5t-68 41.5q-95 0 -95 -160zM684 287 q0 127 71.5 216t190.5 89q120 0 191 -89t71 -216q0 -125 -71 -214t-191 -89q-118 0 -190 89.5t-72 213.5zM852 287q0 -75 24.5 -116.5t69.5 -41.5q92 0 92 158q0 162 -92 162q-46 0 -70 -42t-24 -120z" />
<glyph unicode="&#x26;" horiz-adv-x="1214" d="M76 340q0 114 57.5 190.5t157.5 135.5l-21 24q-98 119 -98 250q0 135 96 225t260 90q163 0 260 -85.5t97 -219.5q0 -65 -18.5 -119t-54.5 -95t-73.5 -69.5t-89.5 -58.5l180 -190q50 104 68 227l236 -53q-35 -202 -140 -348l232 -244h-340l-64 72q-137 -92 -293 -92 q-227 0 -339.5 98t-112.5 262zM350 344q0 -69 47.5 -111.5t132.5 -42.5q79 0 146 43l-232 261q-94 -67 -94 -150zM416 926q0 -38 19 -72.5t63 -83.5l2 -2q69 35 106 71t37 85q0 59 -29 94t-84 35q-56 0 -85 -34.5t-29 -92.5z" />
<glyph unicode="'" horiz-adv-x="354" d="M78 973l26 428h211l-90 -428h-147z" />
<glyph unicode="(" horiz-adv-x="548" d="M55 588q0 111 16.5 219t43.5 191.5t59 159.5t64.5 129.5t59.5 93t44 58.5l16 19l160 -168q-8 -11 -22 -31t-50 -88.5t-63 -144.5t-49.5 -195t-22.5 -243q0 -123 21.5 -240.5t51.5 -197.5t60.5 -142t51.5 -92l22 -29l-160 -168q-6 7 -17 20t-42.5 57.5t-60 94t-63.5 127.5 t-60.5 160t-42.5 190.5t-17 219.5z" />
<glyph unicode=")" horiz-adv-x="550" d="M31 -113q8 11 22 31t50 89t63 144.5t49.5 194.5t22.5 242q0 124 -21.5 241.5t-52 197.5t-60.5 142t-52 91l-21 30l159 168q6 -7 17 -20t42.5 -57.5t60.5 -94t64 -128t60 -160.5t42.5 -190.5t17.5 -219.5t-17 -218.5t-43.5 -191.5t-59 -159.5t-65 -129t-59 -93 t-43.5 -58.5l-17 -19z" />
<glyph unicode="*" horiz-adv-x="724" d="M63 1135l50 157l202 -116l-32 251h157l-37 -253l207 118l49 -157l-223 -41l162 -187l-131 -96l-107 225l-106 -225l-129 96l160 187z" />
<glyph unicode="+" horiz-adv-x="946" d="M61 502v200h312v353h200v-353h312v-200h-312v-336h-200v336h-312z" />
<glyph unicode="," horiz-adv-x="421" d="M47 -123q109 27 127 107q-47 11 -76.5 48t-29.5 89q0 60 40.5 101.5t98.5 41.5q60 0 100.5 -41.5t40.5 -101.5v-12q0 -133 -68.5 -233.5t-195.5 -127.5z" />
<glyph unicode="-" horiz-adv-x="708" d="M90 369v200h528v-200h-528z" />
<glyph unicode="." horiz-adv-x="417" d="M68 121q0 60 40.5 101.5t100.5 41.5q58 0 98.5 -41.5t40.5 -101.5t-40 -100.5t-99 -40.5q-60 0 -100.5 40.5t-40.5 100.5z" />
<glyph unicode="/" horiz-adv-x="1161" d="M37 -229l842 1833h243l-839 -1833h-246z" />
<glyph unicode="0" horiz-adv-x="1173" d="M72 614q0 131 33 245.5t95.5 203.5t162.5 140.5t225 51.5t224.5 -51.5t162 -140.5t95 -203.5t32.5 -245.5t-32.5 -245.5t-95 -203.5t-162 -140.5t-224.5 -51.5t-225 51.5t-162.5 140.5t-95.5 203.5t-33 245.5zM328 614q0 -181 67.5 -292t192.5 -111q124 0 191 111t67 292 t-67 292.5t-191 111.5q-125 0 -192.5 -111.5t-67.5 -292.5z" />
<glyph unicode="1" horiz-adv-x="626" d="M29 1012v217h481v-1229h-248v1012h-233z" />
<glyph unicode="2" horiz-adv-x="980" d="M53 1090q6 7 17.5 18t50.5 39.5t82.5 50t112 39.5t139.5 18q103 0 186.5 -31t137 -84.5t82 -123t28.5 -148.5q0 -99 -29.5 -176t-97.5 -151l-293 -324h432v-217h-821v178l428 463q50 54 68 97t18 100q0 75 -45.5 125.5t-124.5 50.5q-30 0 -57.5 -7t-56 -24t-44 -27.5 t-46 -35t-36.5 -29.5z" />
<glyph unicode="3" horiz-adv-x="968" d="M49 145l127 183q4 -5 12 -13.5t34.5 -29.5t55 -37t71 -29.5t85.5 -13.5q96 0 146.5 48t50.5 128q0 82 -50 128t-151 46h-141v160l243 297h-442v217h768v-182l-252 -310q144 -22 216.5 -114.5t72.5 -249.5q0 -172 -116 -284t-339 -112q-75 0 -143 17.5t-111 42t-75.5 49 t-46.5 42.5z" />
<glyph unicode="4" horiz-adv-x="1085" d="M39 266v183l588 780h231v-748h172v-215h-172v-266h-248v266h-571zM340 481h270v375l-229 -324l-41 -43v-8z" />
<glyph unicode="5" horiz-adv-x="960" d="M53 145l129 181q4 -5 12 -13t34.5 -29t55 -37t71 -29t85.5 -13q96 0 145.5 47.5t49.5 132.5q0 84 -60 133t-192 49q-63 0 -122.5 -10t-88.5 -19.5t-29 -11.5l-24 19l18 684h692v-217h-467l-6 -244q47 6 95 6q234 0 342 -101.5t108 -281.5q0 -185 -115.5 -299.5 t-341.5 -114.5q-73 0 -140.5 17.5t-111 42t-76.5 49t-48 42.5z" />
<glyph unicode="6" horiz-adv-x="1046" d="M74 582q0 308 128 485.5t357 177.5q53 0 101.5 -8.5t85 -22t68 -30t52 -32.5t35.5 -29.5t22 -22.5l7 -8l-135 -197q-71 63 -120 89t-116 26q-203 0 -203 -303v-17q88 88 224 88q182 0 293.5 -102.5t111.5 -278.5q0 -185 -125 -302.5t-311 -117.5q-99 0 -182 33.5 t-150 103t-105 189t-38 279.5zM360 391q12 -93 60 -141.5t123 -48.5q80 0 128 55t48 137q0 80 -47 133.5t-127 53.5q-79 0 -129.5 -53t-55.5 -136z" />
<glyph unicode="7" horiz-adv-x="897" d="M49 1012v217h823v-176l-477 -1053h-284l469 1012h-531z" />
<glyph unicode="8" horiz-adv-x="1030" d="M74 356q0 191 147 287q-117 92 -117 258q0 155 106 254.5t306 99.5q198 0 304 -100t106 -254q0 -163 -117 -258q147 -93 147 -287q0 -165 -117.5 -274t-322.5 -109q-207 0 -324.5 109t-117.5 274zM338 367q0 -76 49 -127.5t129 -51.5q78 0 128 52t50 127q0 77 -49 128.5 t-129 51.5t-129 -51.5t-49 -128.5zM358 881q0 -66 44.5 -111t113.5 -45t112.5 45t43.5 111t-43.5 111.5t-112.5 45.5t-113.5 -45.5t-44.5 -111.5z" />
<glyph unicode="9" horiz-adv-x="1046" d="M63 823q0 185 125.5 303.5t311.5 118.5q98 0 181 -33.5t149.5 -103.5t104.5 -190t38 -279q0 -309 -125.5 -487.5t-353.5 -178.5q-73 0 -138 16t-105.5 38.5t-71 45t-43.5 38.5l-13 16l135 197q72 -64 119.5 -89.5t114.5 -25.5q201 0 198 305v14q-86 -86 -223 -86 q-181 0 -292.5 102.5t-111.5 278.5zM330 827q0 -80 47 -133t127 -53q78 0 128.5 53t53.5 135q-10 94 -57.5 142.5t-122.5 48.5q-80 0 -128 -54.5t-48 -138.5z" />
<glyph unicode=":" horiz-adv-x="452" d="M88 121q0 60 40.5 101.5t100.5 41.5q59 0 99.5 -41.5t40.5 -101.5t-40.5 -100.5t-99.5 -40.5q-60 0 -100.5 40.5t-40.5 100.5zM90 731q0 60 40.5 101.5t98.5 41.5q59 0 100.5 -41.5t41.5 -101.5t-41.5 -100.5t-100.5 -40.5t-99 40.5t-40 100.5z" />
<glyph unicode=";" horiz-adv-x="460" d="M70 -123q109 27 127 107q-47 11 -77 48.5t-30 88.5q0 60 40.5 101.5t98.5 41.5q59 0 100.5 -41.5t41.5 -101.5v-12q0 -133 -69 -233.5t-196 -127.5zM90 731q0 60 40.5 101.5t98.5 41.5q59 0 100.5 -41.5t41.5 -101.5t-41.5 -100.5t-100.5 -40.5t-99 40.5t-40 100.5z" />
<glyph unicode="&#x3c;" horiz-adv-x="690" d="M63 522v183l512 339v-266l-311 -166l311 -170v-264z" />
<glyph unicode="=" horiz-adv-x="847" d="M100 305v199h648v-199h-648zM100 694v201h648v-201h-648z" />
<glyph unicode="&#x3e;" horiz-adv-x="690" d="M115 178v264l311 170l-311 166v266l512 -339v-183z" />
<glyph unicode="?" horiz-adv-x="841" d="M49 1137q4 5 13 13t39.5 28.5t66 36.5t92.5 29t119 13q178 0 288.5 -91.5t110.5 -247.5q0 -68 -19.5 -125t-49.5 -92.5t-65.5 -69.5t-67 -59t-54.5 -59t-28 -71l-5 -45h-198v68q0 59 21 107t51.5 81t60.5 64t51 70.5t21 86.5q0 65 -39.5 102.5t-106.5 37.5 q-43 0 -86.5 -19t-65.5 -38l-22 -19zM250 129q0 60 41 101.5t100 41.5q60 0 100.5 -41.5t40.5 -101.5t-40.5 -102.5t-100.5 -42.5q-58 0 -99.5 42.5t-41.5 102.5z" />
<glyph unicode="@" horiz-adv-x="1869" d="M61 565q0 154 41 298.5t120 264t186 209t247.5 139.5t296.5 50q179 0 337.5 -70t270 -188.5t176 -280t64.5 -338.5q0 -153 -48 -275.5t-144.5 -196t-227.5 -73.5q-65 0 -117 18t-80 42t-48 55.5t-26 50.5t-9 35h-10q-9 -19 -21 -38.5t-37.5 -48t-54.5 -49.5t-74.5 -36.5 t-95.5 -15.5q-150 0 -242 103t-92 278q0 116 33.5 214.5t90 165t132.5 103.5t160 37q98 0 154 -43t75 -115h8l25 137h205l-49 -475q-1 -9 -3 -26t-3 -33.5t-1 -32.5q0 -77 43 -123.5t113 -46.5q98 0 156.5 102.5t58.5 282.5q0 109 -29 217t-88.5 206.5t-143.5 174.5 t-202.5 121t-255.5 45q-222 0 -402 -116.5t-278 -308t-98 -415.5q0 -229 104 -424t281 -308t385 -113q67 0 132 12t111 29t82 34t54 29l18 12l45 -104q-6 -5 -18.5 -13.5t-55 -30.5t-90 -39t-123 -30.5t-155.5 -13.5q-153 0 -291.5 50.5t-245 141t-185.5 210t-120 262 t-41 292.5zM741 535q0 -86 38 -135.5t104 -49.5q84 0 137 75.5t53 182.5q0 86 -38 133t-109 47q-78 0 -131.5 -70.5t-53.5 -182.5z" />
<glyph unicode="A" d="M-12 0l442 1229h264l443 -1229h-267l-77 238h-463l-76 -238h-266zM395 438h332l-166 510z" />
<glyph unicode="B" horiz-adv-x="1130" d="M123 0v1229h516q194 0 293.5 -87t99.5 -247q0 -83 -37 -150t-102 -104v-14q82 -28 127 -98.5t45 -170.5q0 -172 -109 -265t-307 -93h-526zM371 217h280q65 0 106.5 42.5t41.5 111.5q0 66 -42 109.5t-106 43.5h-280v-307zM371 717h258q63 0 102 41t39 104q0 70 -36 110 t-99 40h-264v-295z" />
<glyph unicode="C" horiz-adv-x="1040" d="M57 614q0 133 40.5 249.5t113.5 203.5t183 137.5t241 50.5q74 0 140.5 -15.5t109 -37.5t74 -44.5t45.5 -37.5l14 -16l-141 -191q-3 4 -9.5 11t-29 25.5t-48 32t-66.5 25t-85 11.5q-142 0 -233 -114.5t-91 -289.5q0 -176 91 -290.5t233 -114.5q44 0 84.5 11t67 26.5t47 31 t30.5 26.5l9 11l141 -190q-5 -6 -14.5 -16.5t-44.5 -37t-75.5 -47t-107.5 -37t-141 -16.5q-131 0 -241 50.5t-183 138t-113.5 204.5t-40.5 250z" />
<glyph unicode="D" horiz-adv-x="1193" d="M123 0v1229h426q176 0 310 -78.5t205 -218t71 -318.5q0 -273 -160 -443.5t-426 -170.5h-426zM371 217h159q151 0 250 107t99 290q0 187 -98.5 292.5t-250.5 105.5h-159v-795z" />
<glyph unicode="E" horiz-adv-x="1005" d="M123 0v1229h815v-217h-567v-289h477v-201h-477v-305h567v-217h-815z" />
<glyph unicode="F" horiz-adv-x="1007" d="M123 0v1229h821v-217h-573v-291h477v-201h-477v-520h-248z" />
<glyph unicode="G" horiz-adv-x="1202" d="M59 614q0 133 40 249.5t113 203.5t182.5 137.5t240.5 50.5q80 0 151 -16t115.5 -38.5t77.5 -45.5t47 -39l14 -16l-147 -191q-4 4 -11 11.5t-32 26.5t-53 33t-73 26t-93 12q-138 0 -227 -114.5t-89 -289.5t89 -290t225 -115q124 0 191 81.5t67 213.5v6h-281v203h555v-150 q0 -268 -143.5 -429t-388.5 -161q-173 0 -304.5 87t-198.5 231.5t-67 322.5z" />
<glyph unicode="H" horiz-adv-x="1234" d="M123 -2v1231h248v-516h493v516h248v-1231h-248v512h-493v-512h-248z" />
<glyph unicode="I" horiz-adv-x="493" d="M123 0v1229h248v-1229h-248z" />
<glyph unicode="J" horiz-adv-x="864" d="M20 84l119 199q8 -8 22.5 -19t60.5 -30t93 -19q99 0 144 60.5t45 193.5v760h248v-811q0 -95 -25 -174t-75.5 -141t-134 -97t-193.5 -35q-58 0 -110.5 11.5t-86.5 27.5t-59.5 33t-36.5 28t-11 13z" />
<glyph unicode="K" horiz-adv-x="1140" d="M123 0v1229h248v-547l454 547h301v-27l-419 -497l421 -678v-27h-278l-309 510l-170 -203v-307h-248z" />
<glyph unicode="L" horiz-adv-x="940" d="M123 0v1229h248v-1012h518v-217h-766z" />
<glyph unicode="M" horiz-adv-x="1368" d="M121 0l2 1229h196l365 -551l367 551h194l2 -1229h-246v737l-266 -377h-98l-268 377v-737h-248z" />
<glyph unicode="N" horiz-adv-x="1253" d="M123 0v1229h188l574 -776v776h245v-1229h-188l-573 772v-772h-246z" />
<glyph unicode="O" horiz-adv-x="1263" d="M57 614q0 176 71.5 322t204 232.5t298.5 86.5q168 0 300.5 -86.5t203.5 -232t71 -322.5t-71 -323t-203.5 -233t-300.5 -87q-166 0 -298.5 87t-204 233.5t-71.5 322.5zM313 614q0 -174 91 -288.5t227 -114.5q137 0 228 114.5t91 288.5t-91 289t-228 115q-136 0 -227 -115 t-91 -289z" />
<glyph unicode="P" horiz-adv-x="1087" d="M123 0v1229h489q194 0 313 -113t119 -299q0 -194 -118.5 -306t-315.5 -112h-239v-399h-248zM371 614h227q87 0 138.5 51t51.5 150q0 97 -51.5 147t-140.5 50h-225v-398z" />
<glyph unicode="Q" horiz-adv-x="1263" d="M57 614q0 176 71.5 322t204 232.5t298.5 86.5q168 0 300.5 -86.5t203.5 -232t71 -322.5q0 -182 -78 -332.5t-213 -232.5l136 -266h-273l-88 192q-40 -4 -59 -4q-166 0 -298.5 87t-204 233.5t-71.5 322.5zM313 614q0 -174 91 -288.5t227 -114.5q137 0 228 114.5t91 288.5 t-91 289t-228 115q-136 0 -227 -115t-91 -289z" />
<glyph unicode="R" horiz-adv-x="1128" d="M123 0v1229h489q194 0 313 -113t119 -299q0 -131 -57.5 -225.5t-159.5 -142.5v-21l258 -403v-25h-278l-246 406h-190v-406h-248zM371 618h229q85 0 136.5 51t51.5 146q0 97 -51.5 147t-140.5 50h-225v-394z" />
<glyph unicode="S" horiz-adv-x="993" d="M51 131l135 188q6 -5 17.5 -13t46.5 -28t70.5 -35.5t85.5 -28.5t96 -13q76 0 113.5 36.5t37.5 100.5q0 62 -42.5 99.5t-170.5 80.5q-192 61 -282 146t-90 227q0 167 109.5 265.5t320.5 98.5q84 0 157 -13t118 -31.5t78 -37.5t47 -32l13 -13l-133 -202q-5 4 -13.5 11 t-37 24.5t-59 31t-77.5 24.5t-93 11q-148 0 -148 -123q0 -55 42 -88t159 -72q203 -68 296 -154.5t93 -230.5q0 -170 -110.5 -278.5t-319.5 -108.5q-86 0 -165 16.5t-130 39.5t-90 46t-57 39z" />
<glyph unicode="T" horiz-adv-x="991" d="M45 1012v217h903v-217h-327v-1012h-248v1012h-328z" />
<glyph unicode="U" horiz-adv-x="1200" d="M109 524v705h247v-705q0 -140 62.5 -226.5t181.5 -86.5q121 0 182.5 86t61.5 227v705h248v-705q0 -159 -58 -283.5t-171 -197t-263 -72.5q-222 0 -356.5 155.5t-134.5 397.5z" />
<glyph unicode="V" d="M-12 1229h266l307 -948l309 948h267l-443 -1229h-264z" />
<glyph unicode="W" horiz-adv-x="1507" d="M20 1229h269l172 -766l192 766h193l196 -768l175 768h270l-342 -1229h-191l-204 791l-197 -791h-193z" />
<glyph unicode="X" horiz-adv-x="1087" d="M20 0l334 629l-327 600h301l172 -373l45 -102l45 102l172 373h299l-330 -600l338 -629h-301l-178 393l-47 101l-45 -101l-179 -393h-299z" />
<glyph unicode="Y" horiz-adv-x="1021" d="M-12 1229h270l207 -428l47 -111l47 111l205 428h270l-399 -748v-481h-248v479z" />
<glyph unicode="Z" horiz-adv-x="1030" d="M55 0v182l584 830h-563v217h887v-191l-568 -821h568v-217h-908z" />
<glyph unicode="[" horiz-adv-x="628" d="M100 -266v1700h496v-201h-262v-1299h262v-200h-496z" />
<glyph unicode="\" horiz-adv-x="747" d="M49 1634h242l407 -1896h-243z" />
<glyph unicode="]" horiz-adv-x="628" d="M33 -66h262v1299h-262v201h495v-1700h-495v200z" />
<glyph unicode="^" horiz-adv-x="747" d="M70 1018l235 401h129l244 -401h-191l-116 213l-119 -213h-182z" />
<glyph unicode="_" horiz-adv-x="980" d="M74 -82h831v-201h-831v201z" />
<glyph unicode="`" horiz-adv-x="526" d="M59 1294l275 41l69 -317h-165z" />
<glyph unicode="a" horiz-adv-x="878" d="M45 252q0 133 91.5 208t266.5 75q81 0 152 -23v27q0 77 -46 111t-134 34q-49 0 -99.5 -15t-75.5 -31l-26 -15l-78 180q5 3 14 8.5t40 19t66.5 23.5t91.5 18.5t116 8.5q176 0 271.5 -95t95.5 -256v-530h-168l-33 109h-8q-70 -129 -250 -129q-132 0 -209.5 76t-77.5 196z M276 268q0 -54 33.5 -87.5t87.5 -33.5q64 0 109.5 44t48.5 112v70q-39 26 -121 26q-76 0 -117 -34.5t-41 -96.5z" />
<glyph unicode="b" horiz-adv-x="974" d="M96 0v1239h246v-475h10q2 5 6 13t21 28t39 35.5t61.5 28t85.5 12.5q154 0 255.5 -127t101.5 -326q0 -202 -103.5 -325t-261.5 -123q-53 0 -98.5 15t-72 36t-45.5 42.5t-27 36.5l-7 15h-10l-37 -125h-164zM330 432q0 -114 47.5 -182t124.5 -68q76 0 124 70.5t48 179.5 t-48 177.5t-124 68.5q-77 0 -124.5 -66.5t-47.5 -179.5z" />
<glyph unicode="c" horiz-adv-x="763" d="M51 430q0 197 116 324t306 127q47 0 90 -8t70.5 -19.5t48.5 -23t30 -19.5l9 -8l-64 -176q-8 6 -22.5 14.5t-57 22.5t-83.5 14q-86 0 -140.5 -67t-54.5 -181q0 -115 54 -181.5t141 -66.5q41 0 81.5 13t60.5 25l21 13l64 -174q-3 -3 -9.5 -8.5t-30 -19t-49.5 -24t-69.5 -19 t-89.5 -8.5q-190 0 -306 126.5t-116 323.5z" />
<glyph unicode="d" horiz-adv-x="976" d="M53 428q0 199 102 326t257 127q45 0 83.5 -11.5t61 -27.5t38.5 -32.5t22 -27.5l6 -12h10v469h246v-1239h-162l-39 119h-10q-3 -6 -8 -15t-25.5 -33t-46 -42.5t-70 -33.5t-96.5 -15q-161 0 -265 123t-104 325zM301 432q0 -109 48 -179.5t124 -70.5q79 0 126.5 67.5 t47.5 182.5q0 113 -47.5 179.5t-126.5 66.5q-76 0 -124 -68.5t-48 -177.5z" />
<glyph unicode="e" horiz-adv-x="864" d="M51 430q0 195 111 323t287 128q172 0 271 -116.5t99 -311.5l-2 -68h-528q18 -215 209 -215q53 0 102 18t72 36l22 18l86 -162q-4 -4 -11.5 -11t-35.5 -25.5t-59.5 -32t-84.5 -25t-110 -11.5q-198 0 -313 127.5t-115 327.5zM293 530h287q-6 79 -41.5 122.5t-96.5 43.5 q-123 0 -149 -166z" />
<glyph unicode="f" horiz-adv-x="643" d="M23 670v190h151v51q0 162 80 252t229 90q52 0 100.5 -10.5t71.5 -20.5l23 -10l-78 -182q-29 19 -80 19q-46 0 -73 -34t-27 -91v-64h223v-190h-223v-670h-246v670h-151z" />
<glyph unicode="g" horiz-adv-x="894" d="M41 -147q0 123 121 194q-105 57 -105 174q0 100 111 164q-76 76 -76 190q0 133 93 217.5t247 84.5q66 0 129 -17h293v-184h-98v-4q18 -25 18 -109q0 -116 -88.5 -196t-253.5 -80q-76 0 -135 20q-27 -21 -27 -57q0 -16 5.5 -26t23 -20.5t55.5 -17t99 -10.5 q226 -10 316.5 -69.5t90.5 -188.5q0 -125 -110 -210t-312 -85q-205 0 -301 62t-96 168zM276 -121q0 -98 162 -98q90 0 134 28.5t44 75.5q0 46 -33 72.5t-130 30.5q-72 4 -109 8q-68 -50 -68 -117zM315 580q0 -59 31.5 -98.5t85.5 -39.5q58 0 90.5 39t32.5 99 q0 58 -32.5 97.5t-90.5 39.5q-54 0 -85.5 -39.5t-31.5 -97.5z" />
<glyph unicode="h" horiz-adv-x="968" d="M98 0v1239h248v-459h8q69 103 213 103q143 0 228.5 -104t85.5 -279v-498h-246v496q0 79 -38.5 124.5t-107.5 45.5q-65 0 -104 -41.5t-39 -104.5v-522h-248z" />
<glyph unicode="i" horiz-adv-x="444" d="M82 1135q0 61 40.5 101t100.5 40q61 0 102.5 -40t41.5 -101t-41.5 -100.5t-102.5 -39.5q-60 0 -100.5 39.5t-40.5 100.5zM98 0v860h246v-860h-246z" />
<glyph unicode="j" horiz-adv-x="444" d="M-6 -115h41q63 0 63 78v897h248v-909q0 -123 -65.5 -196.5t-182.5 -73.5h-104v204zM80 1135q0 61 40.5 101t100.5 40q61 0 103.5 -40t42.5 -101t-42.5 -100.5t-103.5 -39.5q-60 0 -100.5 39.5t-40.5 100.5z" />
<glyph unicode="k" horiz-adv-x="890" d="M98 0v1239h246v-713l234 334h294l-282 -373l293 -487h-297l-185 317l-57 -73v-244h-246z" />
<glyph unicode="l" horiz-adv-x="444" d="M98 0v1239h246v-1239h-246z" />
<glyph unicode="m" horiz-adv-x="1499" d="M98 0v860h152l37 -121h12q87 142 252 142q92 0 163 -39t113 -111h7q45 73 105 112.5t148 39.5q150 0 237 -104.5t87 -278.5v-500h-246v498q0 79 -36.5 124.5t-104.5 45.5t-106.5 -44.5t-38.5 -111.5v-512h-246v508q0 75 -38.5 117.5t-105.5 42.5t-106 -41.5t-39 -104.5 v-522h-246z" />
<glyph unicode="n" horiz-adv-x="968" d="M98 0v860h152l37 -121h12q49 75 107 109.5t145 34.5q152 0 241 -104.5t89 -278.5v-500h-246v498q0 79 -38.5 124.5t-107.5 45.5q-65 0 -105 -41.5t-40 -104.5v-522h-246z" />
<glyph unicode="o" horiz-adv-x="933" d="M51 426q0 201 120 328t296 127q174 0 295 -127t121 -328q0 -199 -120.5 -322.5t-295.5 -123.5q-176 0 -296 123.5t-120 322.5zM291 430q0 -117 48.5 -186.5t127.5 -69.5q77 0 125.5 69.5t48.5 186.5q0 115 -48.5 185.5t-125.5 70.5q-78 0 -127 -70.5t-49 -185.5z" />
<glyph unicode="p" horiz-adv-x="976" d="M98 -319v1179h158l37 -121h10q3 6 8.5 15.5t27 34t48 43t72 34t98.5 15.5q159 0 263 -123.5t104 -325.5q0 -199 -101.5 -325.5t-255.5 -126.5q-46 0 -85.5 11.5t-62 27.5t-38 32t-21.5 27l-6 12h-10v-409h-246zM332 428q0 -113 47.5 -179.5t124.5 -66.5q76 0 124 68.5 t48 177.5t-48 179.5t-124 70.5q-77 0 -124.5 -68t-47.5 -182z" />
<glyph unicode="q" horiz-adv-x="974" d="M53 432q0 202 104 325.5t265 123.5q54 0 100 -15.5t72.5 -38t46 -45t26.5 -38.5l7 -15h8l39 131h158v-1179h-246v415h-10q-2 -5 -6 -12.5t-21 -27.5t-38.5 -35.5t-60.5 -28t-85 -12.5q-155 0 -257 126.5t-102 325.5zM301 428q0 -109 48 -177.5t124 -68.5q79 0 126.5 66.5 t47.5 179.5q0 115 -47.5 182.5t-126.5 67.5q-76 0 -124 -70.5t-48 -179.5z" />
<glyph unicode="r" horiz-adv-x="583" d="M98 0v860h152l37 -127h10q68 127 219 127h43v-207h-41q-75 0 -124 -54.5t-50 -145.5v-453h-246z" />
<glyph unicode="s" horiz-adv-x="802" d="M53 76l76 168q5 -3 14 -9t37.5 -20.5t57 -25.5t68.5 -20t77 -9q106 0 106 73q0 28 -23.5 47.5t-61.5 32.5t-83.5 26t-91 33.5t-83.5 49.5t-61.5 79t-23.5 117q0 115 84 189t238 74q65 0 124.5 -8t99 -19t69.5 -22t44 -19l13 -8l-74 -182q-12 8 -34 20.5t-86.5 33.5 t-126.5 21q-101 0 -101 -71q0 -24 19 -41t49.5 -27t70 -22t81 -23.5t81 -33t70 -50t49.5 -75.5t19 -107q0 -120 -86.5 -194t-264.5 -74q-68 0 -128.5 10t-98.5 24t-66.5 28t-40.5 24z" />
<glyph unicode="t" horiz-adv-x="653" d="M27 670v190h133v262h246v-262h188v-190h-188v-385q0 -95 79 -95q19 0 38.5 7t29.5 15l10 7l70 -170q-37 -26 -94.5 -47.5t-116.5 -21.5q-135 0 -198.5 79.5t-63.5 216.5v394h-133z" />
<glyph unicode="u" horiz-adv-x="966" d="M88 360v500h246v-500q0 -84 36 -129t103 -45q65 0 107.5 43t42.5 101v530h245v-860h-166l-40 117h-11q-31 -58 -90.5 -97.5t-146.5 -39.5q-150 0 -238 103t-88 277z" />
<glyph unicode="v" horiz-adv-x="868" d="M-6 860h270l150 -500q14 -40 14 -69h12q0 26 15 69l149 500h268l-350 -860h-176z" />
<glyph unicode="w" horiz-adv-x="1259" d="M2 860h260l115 -500q12 -46 12 -69h12q0 19 15 76l108 493h211l111 -493q14 -58 14 -76h10q0 15 13 69l116 500h258l-284 -860h-209l-113 463q-16 46 -16 96h-10q0 -41 -19 -96l-112 -463h-207z" />
<glyph unicode="x" horiz-adv-x="868" d="M23 0l253 438l-245 422h274l129 -270h6l131 270h275l-264 -422l270 -438h-274l-138 291h-6l-137 -291h-274z" />
<glyph unicode="y" horiz-adv-x="858" d="M-2 860h268l154 -500q14 -54 14 -69h12q0 26 13 69l149 500h252l-454 -1179h-254l170 393z" />
<glyph unicode="z" horiz-adv-x="808" d="M61 0v135l379 527h-374v198h679v-123l-358 -538h358v-199h-684z" />
<glyph unicode="{" horiz-adv-x="587" d="M29 494v186h45q55 0 79.5 37t24.5 121v315q0 294 324 311l35 -204q-63 -11 -86 -34.5t-23 -88.5v-334q0 -79 -31.5 -134t-87.5 -75v-19q56 -19 87.5 -73.5t31.5 -132.5v-334q0 -65 23.5 -88t85.5 -33l-35 -205q-324 14 -324 311v314q0 84 -24.5 122t-79.5 38h-45z" />
<glyph unicode="|" horiz-adv-x="423" d="M100 -262v1669h226v-1669h-226z" />
<glyph unicode="}" horiz-adv-x="587" d="M49 -86q62 10 86.5 33.5t24.5 87.5v334q0 78 31 132.5t88 73.5v19q-57 20 -88 74.5t-31 134.5v334q0 65 -24 88.5t-87 34.5l35 204q326 -17 326 -311v-315q0 -84 24.5 -121t79.5 -37h45v-186h-45q-55 0 -79.5 -38t-24.5 -122v-314q0 -297 -326 -311z" />
<glyph unicode="~" horiz-adv-x="890" d="M90 657q3 3 9.5 9t27.5 21t44 26t59 20.5t73 9.5q52 0 136 -32.5t141 -32.5q36 0 71.5 12t52.5 24l17 13l78 -152l-9 -9t-26.5 -20t-43.5 -25t-60 -20t-76 -9q-51 0 -135 32.5t-140 32.5q-37 0 -73 -12.5t-53 -25.5l-17 -13z" />
<glyph unicode="&#xa1;" horiz-adv-x="430" d="M68 735q0 62 43 106t104 44t104 -44t43 -106q0 -63 -43 -107t-104 -44t-104 44t-43 107zM74 -360l59 821h164l59 -821h-282z" />
<glyph unicode="&#xa2;" horiz-adv-x="802" d="M63 610q0 196 114.5 322t303.5 129l21 168h98l-22 -176q45 -9 84.5 -25.5t55.5 -28.5l17 -12l-63 -180q-49 35 -117 47l-59 -492h12q41 0 82 13t62 26l20 13l63 -178q-4 -3 -10.5 -8t-30 -18.5t-50 -23.5t-69.5 -18t-88 -8h-16l-18 -160h-99l21 172q-144 35 -228 153.5 t-84 284.5zM311 610q0 -148 90 -215l56 455q-66 -19 -106 -83t-40 -157z" />
<glyph unicode="&#xa3;" horiz-adv-x="968" d="M84 512v170h76q-19 108 -19 170q0 166 115.5 278.5t314.5 112.5q61 0 118 -13.5t94.5 -32.5t67 -37.5t43.5 -31.5l13 -14l-147 -203q-3 4 -8 10t-23 22t-37.5 28.5t-50 22.5t-61.5 10q-77 0 -119.5 -51.5t-42.5 -133.5q0 -55 14 -137h320v-170h-291q10 -65 10 -111 q0 -99 -47 -184h461v-217h-791v217q4 1 14.5 7.5t28.5 22.5t33.5 36t27 51.5t11.5 66.5q0 32 -14 111h-111z" />
<glyph unicode="&#xa5;" horiz-adv-x="1150" d="M51 1229h271l206 -428l47 -111l48 111l204 428h271l-318 -594h219v-172h-301v-111h301v-170h-301v-182h-247v182h-293v170h293v111h-293v172h209z" />
<glyph unicode="&#xa6;" horiz-adv-x="444" d="M111 -313v700h223v-700h-223zM111 676v702h223v-702h-223z" />
<glyph unicode="&#xa7;" horiz-adv-x="1028" d="M61 94l105 170q6 -4 16 -10t44.5 -22t71.5 -28t92.5 -22t111.5 -10q160 0 160 82q0 44 -39.5 69t-157.5 64q-49 15 -82.5 26.5t-78.5 30t-74.5 39t-57.5 47t-41.5 60.5t-13.5 74q0 95 69 149q-82 60 -82 166q0 128 105.5 202t312.5 74q77 0 147 -10t115 -24.5t78.5 -29 t48.5 -24.5l15 -10l-105 -178q-14 9 -39 22.5t-103 35.5t-157 22q-133 0 -133 -80q0 -40 33.5 -64t120.5 -51q40 -12 59.5 -18t59 -19t61 -22t55.5 -25t53 -29.5t42.5 -33.5t35.5 -39.5t20.5 -45t8.5 -52.5q0 -62 -21.5 -104.5t-44.5 -63.5q80 -64 80 -160 q0 -122 -113 -201.5t-331 -79.5q-84 0 -160.5 12.5t-126.5 30.5t-88 36.5t-55 31.5zM360 676q0 -70 189 -131l123 -39q18 24 18 59q0 20 -12.5 38t-30.5 30.5t-52 27t-61 23.5t-75 23q-9 2 -38.5 9.5t-43.5 12.5q-17 -17 -17 -53z" />
<glyph unicode="&#xa8;" horiz-adv-x="860" d="M141 1446q0 50 36.5 87.5t82.5 37.5q48 0 84.5 -37t36.5 -88q0 -49 -36.5 -86t-84.5 -37q-46 0 -82.5 37t-36.5 86zM479 1446q0 50 36.5 87.5t82.5 37.5q48 0 83.5 -37t35.5 -88q0 -49 -36 -86t-83 -37q-46 0 -82.5 37t-36.5 86z" />
<glyph unicode="&#xa9;" horiz-adv-x="1263" d="M70 612q0 173 66.5 314.5t196.5 227t300 85.5q129 0 235.5 -49.5t177.5 -135t109.5 -199.5t38.5 -243q0 -128 -38.5 -241.5t-109.5 -198.5t-177.5 -134.5t-235.5 -49.5q-128 0 -235 49.5t-178 134.5t-110.5 198.5t-39.5 241.5zM156 612q0 -149 56.5 -270t166.5 -194.5 t254 -73.5t254.5 73.5t167.5 195t57 269.5q0 150 -57 272.5t-167 195.5t-255 73t-254.5 -73t-166 -195.5t-56.5 -272.5zM342 614q0 141 82.5 235.5t222.5 94.5q39 0 74.5 -8t58 -19.5t39.5 -23t24 -19.5l7 -8l-84 -121q-5 5 -13.5 12t-37 19t-58.5 12q-65 0 -105 -49 t-40 -125q0 -77 40 -125.5t105 -48.5q31 0 58.5 11t38.5 23l12 11l84 -123l-8 -8t-23.5 -18t-40 -23t-57 -18t-74.5 -8q-140 0 -222.5 93.5t-82.5 233.5z" />
<glyph unicode="&#xaa;" horiz-adv-x="729" d="M51 760q0 101 73 160t195 59q98 0 150 -41v14q0 80 -34 120t-109 40q-73 0 -162 -43l-51 133q12 6 33 15t83.5 24.5t120.5 15.5q151 0 219 -78.5t68 -230.5v-387h-125l-25 72h-12q-50 -88 -196 -88q-97 0 -162.5 60.5t-65.5 154.5zM223 768q0 -45 30.5 -73.5t86.5 -28.5 q55 0 92 33.5t37 76.5v8q-4 42 -38.5 65t-86.5 23q-60 0 -90.5 -28t-30.5 -76z" />
<glyph unicode="&#xab;" horiz-adv-x="950" d="M55 403v46l242 387h205v-19l-234 -381v-16l234 -385v-19h-205zM449 403v46l241 387h205v-19l-233 -381v-16l233 -385v-19h-205z" />
<glyph unicode="&#xac;" horiz-adv-x="1050" d="M74 508v201h872v-709h-203v508h-669z" />
<glyph unicode="&#xad;" horiz-adv-x="708" d="M90 369v200h528v-200h-528z" />
<glyph unicode="&#xae;" horiz-adv-x="999" d="M76 778q0 131 49.5 238.5t147 173t225.5 65.5q129 0 227.5 -65.5t148.5 -173t50 -238.5t-50 -238.5t-148.5 -173t-227.5 -65.5q-128 0 -225.5 66t-147 173.5t-49.5 237.5zM162 778q0 -167 93.5 -278t242.5 -111q152 0 246 110.5t94 278.5t-94 278.5t-246 110.5 q-150 0 -243 -108.5t-93 -280.5zM330 580v413h184q74 0 120 -41.5t46 -109.5q0 -81 -62 -123v-4l68 -113v-22h-111l-65 108h-74v-108h-106zM436 784h76q27 0 42 14t15 40q0 55 -57 55h-76v-109z" />
<glyph unicode="&#xaf;" horiz-adv-x="991" d="M227 1368v150h559v-150h-559z" />
<glyph unicode="&#xb0;" horiz-adv-x="534" d="M47 1157q0 94 61.5 157.5t159.5 63.5q97 0 158 -63.5t61 -157.5t-61 -157.5t-158 -63.5q-98 0 -159.5 63.5t-61.5 157.5zM184 1157q0 -41 22.5 -68.5t61.5 -27.5q37 0 60.5 27.5t23.5 68.5q0 42 -23 70t-61 28q-39 0 -61.5 -28t-22.5 -70z" />
<glyph unicode="&#xb1;" horiz-adv-x="970" d="M96 49v201h778v-201h-778zM96 688v199h291v323h203v-323h284v-199h-284v-309h-203v309h-291z" />
<glyph unicode="&#xb2;" horiz-adv-x="626" d="M68 1292q3 4 9.5 10t28 22.5t45.5 29t62 22.5t78 10q116 0 178.5 -65t62.5 -160q0 -116 -73 -186l-137 -133h221v-142h-455v127l225 224q47 47 47 96q0 36 -20.5 60t-56.5 24q-15 0 -28 -3.5t-27.5 -12.5t-22.5 -14t-25 -19.5t-22 -18.5z" />
<glyph unicode="&#xb3;" horiz-adv-x="598" d="M59 774l86 119q5 -6 15 -15.5t43.5 -25.5t70.5 -16q47 0 71 23.5t24 60.5q0 79 -86 79h-84v80l102 146h-223v143h434v-106l-109 -154q64 -21 99 -69t35 -119q0 -105 -66 -170.5t-190 -65.5q-132 0 -222 90z" />
<glyph unicode="&#xb4;" horiz-adv-x="528" d="M82 1018l92 297l281 -27l-213 -270h-160z" />
<glyph unicode="&#xb5;" horiz-adv-x="976" d="M96 360v500h246v-495q3 -79 39.5 -129t99.5 -50q67 0 108.5 55t41.5 121v498h246v-860h-166l-41 117h-11q-95 -137 -237 -137q-38 0 -80 10v-252h-244v571q-2 16 -2 51z" />
<glyph unicode="&#xb6;" horiz-adv-x="1040" d="M53 750q0 230 144.5 355.5t375.5 125.5h349v-1399h-248v418h-101q-229 0 -374.5 131.5t-145.5 368.5z" />
<glyph unicode="&#xb7;" horiz-adv-x="430" d="M68 735q0 63 42.5 107.5t102.5 44.5q62 0 105.5 -44.5t43.5 -107.5t-43.5 -106t-105.5 -43q-60 0 -102.5 43t-42.5 106z" />
<glyph unicode="&#xb8;" horiz-adv-x="387" d="M14 -283l56 86q5 -3 15 -10t15.5 -10.5t15 -8.5t17 -7.5t18 -4.5t21.5 -2q61 0 61 52q0 23 -14.5 35t-38.5 12q-14 0 -26 -2.5t-18 -4.5l-5 -2l-39 46l49 110h113l-25 -67q53 -2 86 -37.5t33 -96.5q0 -69 -44 -111t-124 -42q-32 0 -60.5 6.5t-47 16t-32.5 19.5t-20 16z " />
<glyph unicode="&#xb9;" horiz-adv-x="417" d="M39 1225v143h278v-668h-161v525h-117z" />
<glyph unicode="&#xba;" horiz-adv-x="727" d="M53 897q0 161 88 259.5t221 98.5q134 0 222 -98t88 -260q0 -155 -88 -250.5t-222 -95.5q-133 0 -221 96t-88 250zM223 901q0 -92 37 -147.5t102 -55.5q67 0 104.5 55.5t37.5 147.5q0 94 -38 150.5t-104 56.5q-65 0 -102 -56.5t-37 -150.5z" />
<glyph unicode="&#xbb;" horiz-adv-x="950" d="M55 16v19l234 385v16l-234 381v19h205l242 -387v-46l-242 -387h-205zM449 16v19l233 385v16l-233 381v19h204l242 -387v-46l-242 -387h-204z" />
<glyph unicode="&#xbc;" horiz-adv-x="1230" d="M55 0l893 1229h195l-895 -1231zM88 1085v144h281v-668h-162v524h-119zM600 152v102l336 414h123v-383h104v-133h-104v-152h-156v152h-303zM788 281l52 4h63v168l-80 -125q-6 -11 -15 -23t-14 -18z" />
<glyph unicode="&#xbd;" horiz-adv-x="1331" d="M53 0l893 1229h197l-895 -1229h-195zM96 1085v144h279v-668h-160v524h-119zM788 592l89 -129q6 4 28 22t31.5 24t28 13.5t36.5 7.5q37 0 57.5 -23.5t20.5 -60.5q0 -49 -47 -96l-225 -223v-127h455v141h-222l138 133q73 70 73 187q0 95 -62.5 160t-178.5 65 q-39 0 -76.5 -9.5t-63 -23.5t-45 -28t-28.5 -23z" />
<glyph unicode="&#xbe;" horiz-adv-x="1316" d="M59 635l86 119q5 -6 15 -16t43 -26t69 -16q48 0 71.5 23t23.5 61q0 37 -20.5 58.5t-63.5 21.5h-84v80l102 145h-223v144h434v-107l-111 -153q65 -20 100.5 -69t35.5 -120q0 -104 -66 -169.5t-190 -65.5q-132 0 -222 90zM160 0l895 1229h194l-893 -1229h-196zM700 141v105 l336 411h123v-383h94v-133h-94v-141h-155v141h-304zM889 270l51 4h64v168h-3l-77 -125z" />
<glyph unicode="&#xbf;" horiz-adv-x="827" d="M55 -49q0 69 20 126t50 92.5t66 69.5t67 59t54.5 59t27.5 71l6 43h197v-65q0 -59 -21 -107.5t-50.5 -81.5t-59.5 -64.5t-51 -71t-21 -85.5q0 -65 38 -103t105 -38q27 0 55 7.5t48 18.5t37 22.5t25 18.5l9 8l127 -198q-4 -5 -12.5 -13t-39 -28.5t-65.5 -36t-92.5 -28.5 t-119.5 -13q-178 0 -289 91t-111 247zM301 741q0 60 41.5 103t99.5 43t100 -43t42 -103q0 -61 -41.5 -103t-100.5 -42t-100 42t-41 103z" />
<glyph unicode="&#xc0;" d="M-12 0l442 1229h264l443 -1229h-267l-77 238h-463l-76 -238h-266zM293 1577l274 41l70 -318h-166zM395 438h332l-166 510z" />
<glyph unicode="&#xc1;" d="M-12 0l442 1229h264l443 -1229h-267l-77 238h-463l-76 -238h-266zM395 438h332l-166 510zM483 1300l92 297l281 -26l-213 -271h-160z" />
<glyph unicode="&#xc2;" d="M-12 0l442 1229h264l443 -1229h-267l-77 238h-463l-76 -238h-266zM311 1323l160 268h188l160 -268h-172l-84 127l-82 -127h-170zM395 438h332l-166 510z" />
<glyph unicode="&#xc3;" d="M-12 0l442 1229h264l443 -1229h-267l-77 238h-463l-76 -238h-266zM227 1337l11 70q14 91 63.5 144t132.5 53q49 0 95 -23t83 -45.5t64 -22.5q48 0 59 64l6 33l174 -17l-10 -67q-14 -91 -63.5 -144t-132.5 -53q-49 0 -95.5 22t-83.5 44t-63 22t-39 -15.5t-20 -45.5l-9 -35 zM395 438h332l-166 510z" />
<glyph unicode="&#xc4;" d="M-12 0l442 1229h264l443 -1229h-267l-77 238h-463l-76 -238h-266zM274 1446q0 50 36.5 87.5t82.5 37.5q48 0 84.5 -37t36.5 -88q0 -49 -36.5 -86t-84.5 -37q-46 0 -82.5 37t-36.5 86zM395 438h332l-166 510zM612 1446q0 50 36.5 87.5t82.5 37.5q48 0 83.5 -37t35.5 -88 q0 -49 -36 -86t-83 -37q-46 0 -82.5 37t-36.5 86z" />
<glyph unicode="&#xc5;" d="M-12 0l442 1229h264l443 -1229h-267l-77 238h-463l-76 -238h-266zM346 1444q0 83 55.5 133.5t159.5 50.5t160.5 -51t56.5 -133t-56.5 -133t-160.5 -51t-159.5 50.5t-55.5 133.5zM395 438h332l-166 510zM477 1444q0 -74 84 -74q86 0 86 74q0 35 -22.5 54.5t-63.5 19.5 q-40 0 -62 -19.5t-22 -54.5z" />
<glyph unicode="&#xc6;" horiz-adv-x="1687" d="M-29 0l768 1229h883v-217h-598v-295h477v-201h-477v-299h598v-217h-846v248h-368l-142 -248h-295zM526 453h250v421h-6z" />
<glyph unicode="&#xc7;" horiz-adv-x="1040" d="M57 614q0 133 40.5 249.5t113.5 203.5t183 137.5t241 50.5q74 0 140.5 -15.5t109 -37.5t74 -44.5t45.5 -37.5l14 -16l-141 -191q-3 4 -9.5 11t-29 25.5t-48 32t-66.5 25t-85 11.5q-142 0 -233 -114.5t-91 -289.5q0 -176 91 -290.5t233 -114.5q44 0 84.5 11t67 26.5t47 31 t30.5 26.5l9 11l141 -190q-5 -6 -14 -16t-42 -35.5t-71.5 -45.5t-102 -37.5t-133.5 -19.5l-12 -32q53 -2 86 -37.5t33 -96.5q0 -69 -44 -111t-124 -42q-32 0 -60.5 6.5t-47 16t-32.5 19.5t-20 16l-6 7l55 86q1 -1 17 -11.5t20.5 -13t17.5 -8.5t24 -8t24 -2q61 0 61 52 q0 23 -14.5 35t-38.5 12q-14 0 -26 -2.5t-18 -4.5l-5 -2l-39 46l37 84q-223 32 -354.5 209t-131.5 425z" />
<glyph unicode="&#xc8;" horiz-adv-x="1005" d="M123 0v1229h815v-217h-567v-289h477v-201h-477v-305h567v-217h-815zM299 1577l274 41l70 -318h-166z" />
<glyph unicode="&#xc9;" horiz-adv-x="1005" d="M123 0v1229h815v-217h-567v-289h477v-201h-477v-305h567v-217h-815zM465 1300l92 297l281 -26l-213 -271h-160z" />
<glyph unicode="&#xca;" horiz-adv-x="1005" d="M123 0v1229h815v-217h-567v-289h477v-201h-477v-305h567v-217h-815zM299 1323l160 268h188l160 -268h-172l-84 127l-82 -127h-170z" />
<glyph unicode="&#xcb;" horiz-adv-x="1005" d="M123 0v1229h815v-217h-567v-289h477v-201h-477v-305h567v-217h-815zM264 1446q0 50 36.5 87.5t82.5 37.5q48 0 84.5 -37t36.5 -88q0 -49 -36.5 -86t-84.5 -37q-46 0 -82.5 37t-36.5 86zM602 1446q0 50 36.5 87.5t82.5 37.5q48 0 83.5 -37t35.5 -88q0 -49 -36 -86t-83 -37 q-46 0 -82.5 37t-36.5 86z" />
<glyph unicode="&#xcc;" horiz-adv-x="493" d="M-25 1577l275 41l69 -318h-165zM123 0v1229h248v-1229h-248z" />
<glyph unicode="&#xcd;" horiz-adv-x="493" d="M123 0v1229h248v-1229h-248zM166 1300l92 297l281 -26l-213 -271h-160z" />
<glyph unicode="&#xce;" horiz-adv-x="493" d="M-2 1323l160 268h188l160 -268h-172l-84 127l-82 -127h-170zM123 0v1229h248v-1229h-248z" />
<glyph unicode="&#xcf;" horiz-adv-x="493" d="M-41 1446q0 50 36.5 87.5t82.5 37.5q48 0 84.5 -37t36.5 -88q0 -49 -36.5 -86t-84.5 -37q-46 0 -82.5 37t-36.5 86zM123 0v1229h248v-1229h-248zM297 1446q0 50 36.5 87.5t82.5 37.5q48 0 83.5 -37t35.5 -88q0 -49 -36 -86t-83 -37q-46 0 -82.5 37t-36.5 86z" />
<glyph unicode="&#xd0;" horiz-adv-x="1198" d="M31 512v221h96v496h426q176 0 310 -78.5t205 -218t71 -318.5q0 -273 -160 -443.5t-426 -170.5h-426v512h-96zM375 217h160q151 0 249.5 107t98.5 290q0 187 -98 292.5t-250 105.5h-160v-279h233v-221h-233v-295z" />
<glyph unicode="&#xd1;" horiz-adv-x="1253" d="M123 0v1229h188l574 -776v776h245v-1229h-188l-573 772v-772h-246zM291 1337l10 70q14 90 64 143.5t133 53.5q49 0 95 -23t82.5 -45.5t63.5 -22.5q45 0 60 64l8 33l172 -17l-10 -67q-14 -90 -64 -143.5t-133 -53.5q-49 0 -95.5 22t-83.5 44t-63 22q-45 0 -59 -63l-8 -33z " />
<glyph unicode="&#xd2;" horiz-adv-x="1263" d="M57 614q0 176 71.5 322t204 232.5t298.5 86.5q168 0 300.5 -86.5t203.5 -232t71 -322.5t-71 -323t-203.5 -233t-300.5 -87q-166 0 -298.5 87t-204 233.5t-71.5 322.5zM313 614q0 -174 91 -288.5t227 -114.5q137 0 228 114.5t91 288.5t-91 289t-228 115q-136 0 -227 -115 t-91 -289zM367 1599l274 41l70 -317h-166z" />
<glyph unicode="&#xd3;" horiz-adv-x="1263" d="M57 614q0 176 71.5 322t204 232.5t298.5 86.5q168 0 300.5 -86.5t203.5 -232t71 -322.5t-71 -323t-203.5 -233t-300.5 -87q-166 0 -298.5 87t-204 233.5t-71.5 322.5zM313 614q0 -174 91 -288.5t227 -114.5q137 0 228 114.5t91 288.5t-91 289t-228 115q-136 0 -227 -115 t-91 -289zM543 1323l92 297l280 -27l-213 -270h-159z" />
<glyph unicode="&#xd4;" horiz-adv-x="1263" d="M57 614q0 176 71.5 322t204 232.5t298.5 86.5q168 0 300.5 -86.5t203.5 -232t71 -322.5t-71 -323t-203.5 -233t-300.5 -87q-166 0 -298.5 87t-204 233.5t-71.5 322.5zM313 614q0 -174 91 -288.5t227 -114.5q137 0 228 114.5t91 288.5t-91 289t-228 115q-136 0 -227 -115 t-91 -289zM381 1323l160 268h188l160 -268h-172l-84 127l-82 -127h-170z" />
<glyph unicode="&#xd5;" horiz-adv-x="1263" d="M57 614q0 176 71.5 322t204 232.5t298.5 86.5q168 0 300.5 -86.5t203.5 -232t71 -322.5t-71 -323t-203.5 -233t-300.5 -87q-166 0 -298.5 87t-204 233.5t-71.5 322.5zM291 1337l10 70q14 90 64 143.5t133 53.5q49 0 95 -23t82.5 -45.5t63.5 -22.5q45 0 60 64l8 33 l172 -17l-10 -67q-14 -90 -64 -143.5t-133 -53.5q-49 0 -95.5 22t-83.5 44t-63 22t-39 -16t-20 -47l-8 -33zM313 614q0 -174 91 -288.5t227 -114.5q137 0 228 114.5t91 288.5t-91 289t-228 115q-136 0 -227 -115t-91 -289z" />
<glyph unicode="&#xd6;" horiz-adv-x="1263" d="M57 614q0 176 71.5 322t204 232.5t298.5 86.5q168 0 300.5 -86.5t203.5 -232t71 -322.5t-71 -323t-203.5 -233t-300.5 -87q-166 0 -298.5 87t-204 233.5t-71.5 322.5zM313 614q0 -174 91 -288.5t227 -114.5q137 0 228 114.5t91 288.5t-91 289t-228 115q-136 0 -227 -115 t-91 -289zM344 1446q0 50 36.5 87.5t82.5 37.5q48 0 84.5 -37t36.5 -88q0 -49 -36.5 -86t-84.5 -37q-46 0 -82.5 37t-36.5 86zM682 1446q0 50 36.5 87.5t82.5 37.5q48 0 83.5 -37t35.5 -88q0 -49 -36 -86t-83 -37q-46 0 -82.5 37t-36.5 86z" />
<glyph unicode="&#xd7;" horiz-adv-x="958" d="M80 324l266 292l-266 295l139 140l260 -287l260 287l140 -140l-267 -295l267 -292l-140 -140l-260 287l-260 -287z" />
<glyph unicode="&#xd8;" horiz-adv-x="1296" d="M-29 0l207 233q-104 167 -104 381q0 176 71.5 322t203.5 232.5t298 86.5q196 0 340 -116l80 90h254l-207 -232q109 -165 109 -383q0 -177 -71.5 -323t-204 -233t-300.5 -87q-198 0 -342 119l-80 -90h-254zM330 614q0 -98 28 -180l465 520q-80 64 -176 64 q-135 0 -226 -115t-91 -289zM469 274q78 -63 178 -63q137 0 228.5 114.5t91.5 288.5q0 92 -33 183z" />
<glyph unicode="&#xd9;" horiz-adv-x="1200" d="M109 524v705h247v-705q0 -140 62.5 -226.5t181.5 -86.5q121 0 182.5 86t61.5 227v705h248v-705q0 -159 -58 -283.5t-171 -197t-263 -72.5q-222 0 -356.5 155.5t-134.5 397.5zM332 1577l274 41l70 -318h-166z" />
<glyph unicode="&#xda;" horiz-adv-x="1200" d="M109 524v705h247v-705q0 -140 62.5 -226.5t181.5 -86.5q121 0 182.5 86t61.5 227v705h248v-705q0 -159 -58 -283.5t-171 -197t-263 -72.5q-222 0 -356.5 155.5t-134.5 397.5zM512 1300l92 297l281 -26l-213 -271h-160z" />
<glyph unicode="&#xdb;" horiz-adv-x="1200" d="M109 524v705h247v-705q0 -140 62.5 -226.5t181.5 -86.5q121 0 182.5 86t61.5 227v705h248v-705q0 -159 -58 -283.5t-171 -197t-263 -72.5q-222 0 -356.5 155.5t-134.5 397.5zM350 1300l160 269h188l160 -269h-172l-84 127l-82 -127h-170z" />
<glyph unicode="&#xdc;" horiz-adv-x="1200" d="M109 524v705h247v-705q0 -140 62.5 -226.5t181.5 -86.5q121 0 182.5 86t61.5 227v705h248v-705q0 -159 -58 -283.5t-171 -197t-263 -72.5q-222 0 -356.5 155.5t-134.5 397.5zM315 1446q0 50 36.5 87.5t82.5 37.5q48 0 84.5 -37t36.5 -88q0 -49 -36.5 -86t-84.5 -37 q-46 0 -82.5 37t-36.5 86zM653 1446q0 50 36.5 87.5t82.5 37.5q48 0 83.5 -37t35.5 -88q0 -49 -36 -86t-83 -37q-46 0 -82.5 37t-36.5 86z" />
<glyph unicode="&#xdd;" horiz-adv-x="1021" d="M-12 1229h270l207 -428l47 -111l47 111l205 428h270l-399 -748v-481h-248v479zM428 1368l92 297l281 -27l-213 -270h-160z" />
<glyph unicode="&#xde;" horiz-adv-x="1105" d="M123 0v1229h248v-187h256q206 0 325 -111.5t119 -309.5q0 -210 -127 -324.5t-334 -114.5h-239v-182h-248zM371 393h233q98 0 154.5 54t56.5 163q0 103 -58.5 159t-154.5 56h-231v-432z" />
<glyph unicode="&#xdf;" horiz-adv-x="940" d="M98 0v850q0 180 104.5 282.5t274.5 102.5q164 0 268.5 -103.5t104.5 -252.5q0 -88 -32.5 -154t-90.5 -100q73 -32 114.5 -107.5t41.5 -175.5q0 -160 -93.5 -257t-248.5 -97q-43 0 -71 3t-35 6l-7 3l4 162q41 -4 57 -4q78 0 122 48t44 130q0 83 -43 129.5t-120 46.5h-46 v174q84 18 117 65t33 121q0 71 -32 112.5t-91 41.5q-129 0 -129 -158v-868h-246z" />
<glyph unicode="&#xe0;" horiz-adv-x="878" d="M45 252q0 133 91.5 208t266.5 75q81 0 152 -23v27q0 77 -46 111t-134 34q-49 0 -99.5 -15t-75.5 -31l-26 -15l-78 180q5 3 14 8.5t40 19t66.5 23.5t91.5 18.5t116 8.5q176 0 271.5 -95t95.5 -256v-530h-168l-33 109h-8q-70 -129 -250 -129q-132 0 -209.5 76t-77.5 196z M168 1294l274 41l70 -317h-166zM276 268q0 -54 33.5 -87.5t87.5 -33.5q66 0 112 46.5t46 117.5v62q-39 26 -121 26q-76 0 -117 -34.5t-41 -96.5z" />
<glyph unicode="&#xe1;" horiz-adv-x="878" d="M45 252q0 133 91.5 208t266.5 75q81 0 152 -23v27q0 77 -46 111t-134 34q-49 0 -99.5 -15t-75.5 -31l-26 -15l-78 180q5 3 14 8.5t40 19t66.5 23.5t91.5 18.5t116 8.5q176 0 271.5 -95t95.5 -256v-530h-168l-33 109h-8q-70 -129 -250 -129q-132 0 -209.5 76t-77.5 196z M276 268q0 -54 33.5 -87.5t87.5 -33.5q64 0 109.5 44t48.5 112v70q-39 26 -121 26q-76 0 -117 -34.5t-41 -96.5zM336 1018l92 297l281 -27l-213 -270h-160z" />
<glyph unicode="&#xe2;" horiz-adv-x="878" d="M45 252q0 133 91.5 208t266.5 75q81 0 152 -23v27q0 77 -46 111t-134 34q-49 0 -99.5 -15t-75.5 -31l-26 -15l-78 180q5 3 14 8.5t40 19t66.5 23.5t91.5 18.5t116 8.5q176 0 271.5 -95t95.5 -256v-530h-168l-33 109h-8q-70 -129 -250 -129q-132 0 -209.5 76t-77.5 196z M162 1018l160 268h188l160 -268h-172l-84 127l-82 -127h-170zM276 268q0 -54 33.5 -87.5t87.5 -33.5q64 0 109.5 44t48.5 112v70q-39 26 -121 26q-76 0 -117 -34.5t-41 -96.5z" />
<glyph unicode="&#xe3;" horiz-adv-x="878" d="M45 252q0 133 91.5 208t266.5 75q81 0 152 -23v27q0 77 -46 111t-134 34q-49 0 -99.5 -15t-75.5 -31l-26 -15l-78 180q5 3 14 8.5t40 19t66.5 23.5t91.5 18.5t116 8.5q176 0 271.5 -95t95.5 -256v-530h-168l-33 109h-8q-70 -129 -250 -129q-132 0 -209.5 76t-77.5 196z M70 991l10 70q14 90 63.5 143t132.5 53q49 0 95 -22.5t83 -45t64 -22.5q45 0 60 64l8 33l172 -17l-10 -67q-14 -90 -64 -143.5t-133 -53.5q-49 0 -95.5 22t-83.5 44t-63 22t-39 -16t-20 -47l-8 -33zM276 268q0 -54 33.5 -87.5t87.5 -33.5q66 0 112 46.5t46 117.5v62 q-39 26 -121 26q-76 0 -117 -34.5t-41 -96.5z" />
<glyph unicode="&#xe4;" horiz-adv-x="878" d="M45 252q0 133 91.5 208t266.5 75q81 0 152 -23v27q0 77 -46 111t-134 34q-49 0 -99.5 -15t-75.5 -31l-26 -15l-78 180q5 3 14 8.5t40 19t66.5 23.5t91.5 18.5t116 8.5q176 0 271.5 -95t95.5 -256v-530h-168l-33 109h-8q-70 -129 -250 -129q-132 0 -209.5 76t-77.5 196z M129 1096q0 50 36.5 87.5t82.5 37.5q48 0 84.5 -37t36.5 -88q0 -49 -36.5 -86t-84.5 -37q-46 0 -82.5 37t-36.5 86zM276 268q0 -54 33.5 -87.5t87.5 -33.5q66 0 112 46.5t46 117.5v62q-39 26 -121 26q-76 0 -117 -34.5t-41 -96.5zM467 1096q0 50 36.5 87.5t82.5 37.5 q48 0 83.5 -37t35.5 -88q0 -49 -36 -86t-83 -37q-46 0 -82.5 37t-36.5 86z" />
<glyph unicode="&#xe5;" horiz-adv-x="878" d="M45 252q0 133 91.5 208t266.5 75q81 0 152 -23v27q0 77 -46 111t-134 34q-49 0 -99.5 -15t-75.5 -31l-26 -15l-78 180q5 3 14 8.5t40 19t66.5 23.5t91.5 18.5t116 8.5q176 0 271.5 -95t95.5 -256v-530h-168l-33 109h-8q-70 -129 -250 -129q-132 0 -209.5 76t-77.5 196z M203 1196q0 83 55.5 133.5t159.5 50.5t160.5 -51t56.5 -133t-56.5 -133t-160.5 -51t-159.5 50.5t-55.5 133.5zM276 268q0 -54 33.5 -87.5t87.5 -33.5q64 0 109.5 44t48.5 112v70q-39 26 -121 26q-76 0 -117 -34.5t-41 -96.5zM334 1196q0 -74 84 -74q86 0 86 74 q0 35 -22.5 54.5t-63.5 19.5q-40 0 -62 -19.5t-22 -54.5z" />
<glyph unicode="&#xe6;" horiz-adv-x="1368" d="M39 244q0 280 354 280q89 0 160 -22v28q0 77 -48 117.5t-130 40.5q-47 0 -97.5 -17.5t-77.5 -34.5l-26 -18l-80 185q5 3 15 8.5t42 19t66 23.5t85.5 18.5t103.5 8.5q186 0 284 -103q111 103 262 103q171 0 270 -116.5t99 -311.5v-68h-528q10 -106 63.5 -158.5 t142.5 -52.5q54 0 103.5 18t72.5 36l23 18l84 -162q-4 -4 -11.5 -11t-35 -25t-59 -32t-84 -25t-109.5 -11q-189 0 -301 112q-112 -112 -315 -112q-159 0 -243.5 75t-84.5 189zM276 262q0 -54 30.5 -84.5t90.5 -30.5q76 0 116 51.5t40 129.5v34q-62 25 -137 25 q-69 0 -104.5 -32.5t-35.5 -92.5zM797 530h286q-6 79 -41 122.5t-96 43.5q-123 0 -149 -166z" />
<glyph unicode="&#xe7;" horiz-adv-x="763" d="M51 430q0 197 116 324t306 127q47 0 90 -8t70.5 -19.5t48.5 -23t30 -19.5l9 -8l-64 -176q-8 6 -22.5 14.5t-57 22.5t-83.5 14q-86 0 -140.5 -67t-54.5 -181q0 -115 54 -181.5t141 -66.5q41 0 81.5 13t60.5 25l21 13l64 -174q-3 -3 -9.5 -8.5t-29 -18.5t-48.5 -23.5 t-68 -19t-87 -9.5l-16 -46q53 -2 86 -37t33 -96q0 -69 -44 -111t-124 -42q-32 0 -60.5 6.5t-47 16t-32.5 19.5t-20 16l-6 7l55 86q1 -1 17 -11.5t20.5 -13t17.5 -8.5t24 -8t24 -2q61 0 61 51q0 23 -14.5 35.5t-38.5 12.5q-14 0 -26 -2.5t-18 -4.5l-5 -2l-39 45l43 101 q-146 32 -232 151t-86 287z" />
<glyph unicode="&#xe8;" horiz-adv-x="864" d="M51 430q0 195 111 323t287 128q172 0 271 -116.5t99 -311.5l-2 -68h-528q18 -215 209 -215q53 0 102 18t72 36l22 18l86 -162q-4 -4 -11.5 -11t-35.5 -25.5t-59.5 -32t-84.5 -25t-110 -11.5q-198 0 -313 127.5t-115 327.5zM160 1294l274 41l70 -317h-166zM293 530h287 q-6 79 -41.5 122.5t-96.5 43.5q-123 0 -149 -166z" />
<glyph unicode="&#xe9;" horiz-adv-x="864" d="M51 430q0 195 111 323t287 128q172 0 271 -116.5t99 -311.5l-2 -68h-528q18 -215 209 -215q53 0 102 18t72 36l22 18l86 -162q-4 -4 -11.5 -11t-35.5 -25.5t-59.5 -32t-84.5 -25t-110 -11.5q-198 0 -313 127.5t-115 327.5zM293 530h287q-6 79 -41.5 122.5t-96.5 43.5 q-123 0 -149 -166zM371 1018l92 297l280 -27l-213 -270h-159z" />
<glyph unicode="&#xea;" horiz-adv-x="864" d="M51 430q0 195 111 323t287 128q172 0 271 -116.5t99 -311.5l-2 -68h-528q18 -215 209 -215q53 0 102 18t72 36l22 18l86 -162q-4 -4 -11.5 -11t-35.5 -25.5t-59.5 -32t-84.5 -25t-110 -11.5q-198 0 -313 127.5t-115 327.5zM195 1018l159 268h189l159 -268h-172l-84 127 l-81 -127h-170zM293 530h287q-6 79 -41.5 122.5t-96.5 43.5q-123 0 -149 -166z" />
<glyph unicode="&#xeb;" horiz-adv-x="864" d="M51 430q0 195 111 323t287 128q172 0 271 -116.5t99 -311.5l-2 -68h-528q18 -215 209 -215q53 0 102 18t72 36l22 18l86 -162q-4 -4 -11.5 -11t-35.5 -25.5t-59.5 -32t-84.5 -25t-110 -11.5q-198 0 -313 127.5t-115 327.5zM160 1096q0 50 36.5 87.5t82.5 37.5 q48 0 84 -37t36 -88q0 -49 -36.5 -86t-83.5 -37q-46 0 -82.5 37t-36.5 86zM293 530h287q-6 79 -41.5 122.5t-96.5 43.5q-123 0 -149 -166zM498 1096q0 50 36 87.5t82 37.5q48 0 83.5 -37t35.5 -88q0 -49 -36 -86t-83 -37q-46 0 -82 37t-36 86z" />
<glyph unicode="&#xec;" horiz-adv-x="444" d="M-51 1294l274 41l70 -317h-166zM98 0v860h246v-860h-246z" />
<glyph unicode="&#xed;" horiz-adv-x="444" d="M98 0v860h246v-860h-246zM143 1018l93 297l280 -27l-213 -270h-160z" />
<glyph unicode="&#xee;" horiz-adv-x="444" d="M-27 1040l160 269h189l159 -269h-172l-84 127l-82 -127h-170zM98 0v860h246v-860h-246z" />
<glyph unicode="&#xef;" horiz-adv-x="444" d="M-59 1161q0 50 36 87.5t82 37.5q48 0 84.5 -37t36.5 -88q0 -49 -36.5 -86t-84.5 -37q-46 0 -82 37t-36 86zM98 0v860h246v-860h-246zM279 1161q0 50 36 87.5t82 37.5q48 0 83.5 -37t35.5 -88q0 -49 -36 -86t-83 -37q-46 0 -82 37t-36 86z" />
<glyph unicode="&#xf0;" horiz-adv-x="954" d="M51 428q0 199 118 325t308 126q19 0 29 -2v10q-31 35 -60 86l-47 88l-184 -123l-78 135l191 125l-142 270v23h236l92 -170l199 131l78 -133l-203 -133l207 -379q56 -110 80.5 -187.5t27.5 -173.5v-18q0 -206 -116 -328.5t-310 -122.5q-191 0 -308.5 123t-117.5 328z M299 430q0 -113 49.5 -181.5t128.5 -68.5q82 0 130 68t48 182q0 115 -48.5 180.5t-129.5 65.5q-80 0 -129 -67t-49 -179z" />
<glyph unicode="&#xf1;" horiz-adv-x="968" d="M98 0v860h152l37 -121h12q49 75 107 109.5t145 34.5q152 0 241 -104.5t89 -278.5v-500h-246v479q0 81 -39.5 135t-106.5 54q-63 0 -102.5 -49t-42.5 -115v-504h-246zM139 1055l11 69q14 91 63.5 144t132.5 53q49 0 95 -22.5t83 -45t64 -22.5q45 0 59 63l8 33l172 -16 l-10 -68q-14 -90 -63.5 -143t-132.5 -53q-49 0 -95.5 22t-83.5 44t-63 22q-46 0 -60 -64l-8 -33z" />
<glyph unicode="&#xf2;" horiz-adv-x="933" d="M51 426q0 201 120 328t296 127q174 0 295 -127t121 -328q0 -199 -120.5 -322.5t-295.5 -123.5q-176 0 -296 123.5t-120 322.5zM199 1294l274 41l70 -317h-166zM291 430q0 -117 48.5 -186.5t127.5 -69.5q77 0 125.5 69.5t48.5 186.5q0 115 -48.5 185.5t-125.5 70.5 q-78 0 -127 -70.5t-49 -185.5z" />
<glyph unicode="&#xf3;" horiz-adv-x="933" d="M51 426q0 201 120 328t296 127q174 0 295 -127t121 -328q0 -199 -120.5 -322.5t-295.5 -123.5q-176 0 -296 123.5t-120 322.5zM291 430q0 -117 48.5 -186.5t127.5 -69.5q77 0 125.5 69.5t48.5 186.5q0 115 -48.5 185.5t-125.5 70.5q-78 0 -127 -70.5t-49 -185.5z M383 1018l92 297l281 -27l-213 -270h-160z" />
<glyph unicode="&#xf4;" horiz-adv-x="933" d="M51 426q0 201 120 328t296 127q174 0 295 -127t121 -328q0 -199 -120.5 -322.5t-295.5 -123.5q-176 0 -296 123.5t-120 322.5zM217 1040l160 269h188l160 -269h-172l-84 127l-82 -127h-170zM291 430q0 -117 48.5 -186.5t127.5 -69.5q77 0 125.5 69.5t48.5 186.5 q0 115 -48.5 185.5t-125.5 70.5q-78 0 -127 -70.5t-49 -185.5z" />
<glyph unicode="&#xf5;" horiz-adv-x="933" d="M51 426q0 201 120 328t296 127q174 0 295 -127t121 -328q0 -199 -120.5 -322.5t-295.5 -123.5q-176 0 -296 123.5t-120 322.5zM121 1057l10 69q14 90 64 143.5t133 53.5q49 0 95 -22.5t82.5 -45t63.5 -22.5q49 0 60 63l8 33l172 -16l-10 -68q-14 -90 -64 -143t-133 -53 q-49 0 -95.5 22t-83.5 44t-63 22q-45 0 -59 -64l-8 -33zM291 430q0 -117 48.5 -186.5t127.5 -69.5q77 0 125.5 69.5t48.5 186.5q0 115 -48.5 185.5t-125.5 70.5q-78 0 -127 -70.5t-49 -185.5z" />
<glyph unicode="&#xf6;" horiz-adv-x="933" d="M51 426q0 201 120 328t296 127q174 0 295 -127t121 -328q0 -199 -120.5 -322.5t-295.5 -123.5q-176 0 -296 123.5t-120 322.5zM182 1163q0 50 36.5 87.5t82.5 37.5q48 0 84.5 -37t36.5 -88q0 -49 -36.5 -86t-84.5 -37q-46 0 -82.5 37t-36.5 86zM291 430 q0 -117 48.5 -186.5t127.5 -69.5q77 0 125.5 69.5t48.5 186.5q0 115 -48.5 185.5t-125.5 70.5q-78 0 -127 -70.5t-49 -185.5zM520 1163q0 50 36.5 87.5t82.5 37.5q48 0 83.5 -37t35.5 -88q0 -49 -36 -86t-83 -37q-46 0 -82.5 37t-36.5 86z" />
<glyph unicode="&#xf7;" horiz-adv-x="909" d="M70 506v201h770v-201h-770zM307 254q0 63 43.5 107.5t104.5 44.5t104 -44.5t43 -107.5t-42.5 -106.5t-104.5 -43.5t-105 43.5t-43 106.5zM307 969q0 63 43 107t105 44q61 0 104 -44t43 -107t-42.5 -106.5t-104.5 -43.5t-105 43.5t-43 106.5z" />
<glyph unicode="&#xf8;" horiz-adv-x="933" d="M16 0l125 135q-90 120 -90 291q0 201 120 328t296 127q125 0 231 -72l47 51h162l-123 -133q99 -127 99 -301q0 -199 -120.5 -322.5t-295.5 -123.5q-134 0 -240 73l-49 -53h-162zM291 430q0 -68 14 -117l258 334q-42 39 -96 39q-78 0 -127 -70.5t-49 -185.5zM365 213 q39 -39 102 -39q77 0 125.5 69.5t48.5 186.5q0 61 -16 117z" />
<glyph unicode="&#xf9;" horiz-adv-x="966" d="M88 360v500h246v-479q0 -86 36.5 -140.5t102.5 -54.5q67 0 108.5 55t41.5 121v498h245v-860h-166l-40 117h-11q-95 -137 -237 -137q-150 0 -238 103t-88 277zM203 1294l274 41l70 -317h-166z" />
<glyph unicode="&#xfa;" horiz-adv-x="966" d="M88 360v500h246v-479q0 -86 36.5 -140.5t102.5 -54.5q63 0 104 50t46 114v510h245v-860h-166l-40 117h-11q-95 -137 -237 -137q-150 0 -238 103t-88 277zM385 1018l92 297l281 -27l-213 -270h-160z" />
<glyph unicode="&#xfb;" horiz-adv-x="966" d="M88 360v500h246v-479q0 -86 36.5 -140.5t102.5 -54.5q63 0 104 50t46 114v510h245v-860h-166l-40 117h-11q-95 -137 -237 -137q-150 0 -238 103t-88 277zM215 1018l160 268h188l160 -268h-172l-84 127l-82 -127h-170z" />
<glyph unicode="&#xfc;" horiz-adv-x="966" d="M88 360v500h246v-479q0 -86 36.5 -140.5t102.5 -54.5q67 0 108.5 55t41.5 121v498h245v-860h-166l-40 117h-11q-95 -137 -237 -137q-150 0 -238 103t-88 277zM180 1143q0 50 36.5 87.5t82.5 37.5q48 0 84.5 -37t36.5 -88q0 -49 -36.5 -86t-84.5 -37q-46 0 -82.5 37 t-36.5 86zM518 1143q0 50 36.5 87.5t82.5 37.5q48 0 83.5 -37t35.5 -88q0 -49 -36 -86t-83 -37q-46 0 -82.5 37t-36.5 86z" />
<glyph unicode="&#xfd;" horiz-adv-x="858" d="M-2 860h268l154 -500q14 -54 14 -69h12q0 26 13 69l149 500h252l-454 -1179h-254l170 393zM342 1018l92 297l281 -27l-213 -270h-160z" />
<glyph unicode="&#xfe;" horiz-adv-x="976" d="M98 -319v1548h246v-481h8q2 5 7 14t23 32t40.5 40.5t60.5 32t82 14.5q159 0 259 -123t100 -326q0 -199 -102 -325.5t-257 -126.5q-46 0 -84.5 14.5t-61 35t-38 41.5t-21.5 35l-6 15h-10v-440h-246zM332 428q0 -113 47.5 -179.5t124.5 -66.5q76 0 124 68.5t48 177.5 t-48 179.5t-124 70.5q-77 0 -124.5 -68t-47.5 -182z" />
<glyph unicode="&#xff;" horiz-adv-x="858" d="M-2 860h268l154 -500q14 -54 14 -69h12q0 26 13 69l149 500h252l-454 -1179h-254l170 393zM139 1139q0 50 36.5 87.5t82.5 37.5q48 0 84.5 -37t36.5 -88q0 -49 -36.5 -86t-84.5 -37q-46 0 -82.5 37t-36.5 86zM477 1139q0 50 36.5 87.5t82.5 37.5q48 0 83.5 -37t35.5 -88 q0 -49 -36 -86t-83 -37q-46 0 -82.5 37t-36.5 86z" />
<glyph unicode="&#x152;" horiz-adv-x="1906" d="M57 614q0 176 71.5 322t204 232.5t298.5 86.5q233 0 393 -163v137h815v-217h-567v-289h477v-201h-477v-305h567v-217h-815v133q-162 -162 -393 -162q-166 0 -298.5 87t-204 233.5t-71.5 322.5zM313 614q0 -174 91 -288.5t227 -114.5q137 0 228 114.5t91 288.5t-91 289 t-228 115q-136 0 -227 -115t-91 -289z" />
<glyph unicode="&#x153;" horiz-adv-x="1529" d="M51 426q0 201 120 328t296 127q99 0 185 -45t145 -125q54 80 135.5 125t181.5 45q172 0 271.5 -116.5t99.5 -311.5l-2 -68h-529q18 -215 209 -215q53 0 102 18t72 36l23 18l86 -162q-4 -4 -11.5 -11t-35.5 -25.5t-59.5 -32t-84.5 -25t-110 -11.5q-227 0 -348 170 q-57 -79 -143.5 -122t-186.5 -43q-176 0 -296 123.5t-120 322.5zM291 430q0 -117 48.5 -186.5t127.5 -69.5q77 0 125.5 69.5t48.5 186.5q0 115 -48.5 185.5t-125.5 70.5q-78 0 -127 -70.5t-49 -185.5zM958 530h287q-6 79 -41 122.5t-96 43.5q-124 0 -150 -166z" />
<glyph unicode="&#x178;" horiz-adv-x="1021" d="M-12 1229h270l207 -428l47 -111l47 111l205 428h270l-399 -748v-481h-248v479zM227 1446q0 50 36.5 87.5t82.5 37.5q48 0 84.5 -37t36.5 -88q0 -49 -36.5 -86t-84.5 -37q-46 0 -82.5 37t-36.5 86zM565 1446q0 50 36.5 87.5t82.5 37.5q48 0 83.5 -37t35.5 -88 q0 -49 -36 -86t-83 -37q-46 0 -82.5 37t-36.5 86z" />
<glyph unicode="&#x2c6;" horiz-adv-x="702" d="M111 1323l159 268h189l159 -268h-172l-84 127l-81 -127h-170z" />
<glyph unicode="&#x2dc;" horiz-adv-x="917" d="M111 1337l10 70q14 91 63.5 144t132.5 53q49 0 95 -23t83 -45.5t64 -22.5q48 0 59 64l9 33l172 -17l-11 -67q-14 -91 -63.5 -144t-132.5 -53q-49 0 -95.5 22t-83.5 44t-63 22t-39 -16t-20 -47l-8 -33z" />
<glyph unicode="&#x2000;" horiz-adv-x="832" />
<glyph unicode="&#x2001;" horiz-adv-x="1665" />
<glyph unicode="&#x2002;" horiz-adv-x="832" />
<glyph unicode="&#x2003;" horiz-adv-x="1665" />
<glyph unicode="&#x2004;" horiz-adv-x="555" />
<glyph unicode="&#x2005;" horiz-adv-x="416" />
<glyph unicode="&#x2006;" horiz-adv-x="277" />
<glyph unicode="&#x2007;" horiz-adv-x="277" />
<glyph unicode="&#x2008;" horiz-adv-x="208" />
<glyph unicode="&#x2009;" horiz-adv-x="333" />
<glyph unicode="&#x200a;" horiz-adv-x="92" />
<glyph unicode="&#x2010;" horiz-adv-x="708" d="M90 369v200h528v-200h-528z" />
<glyph unicode="&#x2011;" horiz-adv-x="708" d="M90 369v200h528v-200h-528z" />
<glyph unicode="&#x2012;" horiz-adv-x="708" d="M90 369v200h528v-200h-528z" />
<glyph unicode="&#x2013;" horiz-adv-x="847" d="M106 489v199h631v-199h-631z" />
<glyph unicode="&#x2014;" horiz-adv-x="1320" d="M106 489v199h1106v-199h-1106z" />
<glyph unicode="&#x2018;" horiz-adv-x="425" d="M61 856v12q0 133 69 233.5t196 127.5l36 -129q-109 -27 -124 -107q45 -12 74.5 -49.5t29.5 -87.5q0 -60 -40.5 -101.5t-98.5 -41.5q-59 0 -100.5 41.5t-41.5 101.5z" />
<glyph unicode="&#x2019;" horiz-adv-x="425" d="M74 842q109 24 127 106q-47 11 -77 48.5t-30 88.5q0 60 40.5 102t98.5 42q60 0 101 -42t41 -102v-12q0 -133 -68.5 -233t-195.5 -127z" />
<glyph unicode="&#x201a;" horiz-adv-x="421" d="M47 -123q109 27 127 107q-47 11 -76.5 48t-29.5 89q0 60 40.5 101.5t98.5 41.5q60 0 100.5 -41.5t40.5 -101.5v-12q0 -133 -68.5 -233.5t-195.5 -127.5z" />
<glyph unicode="&#x201c;" horiz-adv-x="780" d="M61 856v12q0 133 69 233.5t196 127.5l36 -129q-109 -27 -124 -107q45 -12 74.5 -49.5t29.5 -87.5q0 -60 -40.5 -101.5t-98.5 -41.5q-59 0 -100.5 41.5t-41.5 101.5zM416 856v12q0 133 68.5 233.5t195.5 127.5l37 -129q-110 -27 -125 -107q45 -12 74.5 -49.5t29.5 -87.5 q0 -60 -40.5 -101.5t-98.5 -41.5q-59 0 -100 41.5t-41 101.5z" />
<glyph unicode="&#x201d;" horiz-adv-x="759" d="M53 842q111 27 125 106q-45 12 -74.5 49.5t-29.5 87.5q0 60 40.5 102t98.5 42q59 0 100 -42t41 -102v-12q0 -133 -68.5 -233t-195.5 -127zM408 842q110 27 124 106q-45 12 -74.5 49.5t-29.5 87.5q0 60 40.5 102t98.5 42q59 0 100.5 -42t41.5 -102v-12q0 -132 -69 -232.5 t-196 -127.5z" />
<glyph unicode="&#x201e;" horiz-adv-x="899" d="M53 -123q110 27 125 107q-45 12 -74.5 49.5t-29.5 87.5q0 60 40.5 101.5t98.5 41.5q59 0 100 -41.5t41 -101.5v-12q0 -133 -68.5 -233.5t-195.5 -127.5zM408 -123q109 27 124 107q-45 12 -74.5 49.5t-29.5 87.5q0 60 40.5 101.5t98.5 41.5q59 0 100.5 -41.5t41.5 -101.5 v-12q0 -133 -69 -233.5t-196 -127.5z" />
<glyph unicode="&#x2022;" horiz-adv-x="616" d="M123 457q0 79 54.5 135.5t129.5 56.5q77 0 132 -56.5t55 -135.5t-55 -135t-132 -56q-75 0 -129.5 56t-54.5 135z" />
<glyph unicode="&#x2026;" horiz-adv-x="1439" d="M74 137q0 65 43 110.5t106 45.5t107.5 -45.5t44.5 -110.5q0 -64 -44.5 -109.5t-107.5 -45.5t-106 45t-43 110zM569 137q0 65 43.5 110.5t106.5 45.5t107 -45.5t44 -110.5t-44 -110t-107 -45t-106.5 45t-43.5 110zM1063 137q0 65 44 110.5t107 45.5t107.5 -45.5 t44.5 -110.5q0 -64 -44.5 -109.5t-107.5 -45.5t-107 45t-44 110z" />
<glyph unicode="&#x202f;" horiz-adv-x="333" />
<glyph unicode="&#x2039;" horiz-adv-x="557" d="M55 403v46l242 387h205v-19l-234 -381v-16l234 -385v-19h-205z" />
<glyph unicode="&#x203a;" horiz-adv-x="557" d="M55 16v19l234 385v16l-234 381v19h205l242 -387v-46l-242 -387h-205z" />
<glyph unicode="&#x205f;" horiz-adv-x="416" />
<glyph unicode="&#x20ac;" horiz-adv-x="1110" d="M63 391v170h123v55q0 42 2 62h-125v168h152q49 185 174.5 297t321.5 112q64 0 122.5 -15.5t96 -37.5t66 -43.5t40.5 -36.5l13 -16l-140 -188q-3 4 -8.5 11t-25 24t-40 30t-53.5 24t-67 11q-171 0 -238 -172h287v-168h-320q-2 -20 -2 -62v-55h322v-170h-289 q66 -178 240 -178q34 0 66.5 10.5t54.5 25t39.5 29t25.5 24.5l8 11l140 -188q-4 -6 -13 -16t-40 -36t-67 -46t-95 -36t-123 -16q-198 0 -324.5 113.5t-173.5 302.5h-150z" />
<glyph unicode="&#x2122;" horiz-adv-x="1374" d="M61 1090v139h488v-139h-166v-515h-156v515h-166zM643 575v654h105l202 -289l205 289h102v-654h-153v343l-121 -175h-63l-121 172v-340h-156z" />
<glyph unicode="&#x25fc;" horiz-adv-x="860" d="M0 0v860h860v-860h-860z" />
</font>
</defs>
</svg>
